<?xml version="1.0" encoding="utf-8"?>
<!-- Generator: Adobe Illustrator 16.2.1, SVG Export Plug-In . SVG Version: 6.00 Build 0)  -->
<!DOCTYPE svg PUBLIC "-//W3C//DTD SVG 1.1 Tiny//EN" "http://www.w3.org/Graphics/SVG/1.1/DTD/svg11-tiny.dtd">
<svg version="1.1" baseProfile="tiny" id="Layer_1" xmlns="http://www.w3.org/2000/svg" xmlns:xlink="http://www.w3.org/1999/xlink"
	 x="0px" y="0px" width="61px" height="143px" viewBox="0 0 61 143" xml:space="preserve">
<path fill="#A49E93" d="M43.844,22.849v-9.767C43.844,5.869,37.856,0,30.5,0c-7.232,0-13.344,6.055-13.344,13.224v9.625H0L5.719,71
	h49.562L61,22.849H43.844z M20.969,13.224c0-5.08,4.365-9.372,9.531-9.372s9.531,4.226,9.531,9.23v9.767H20.969V13.224z"/>
<path fill="#66625B" d="M43.844,94.848V85.08C43.844,77.867,37.856,72,30.5,72c-7.232,0-13.344,6.058-13.344,13.222v9.626H0
	L5.719,143h49.562L61,94.848H43.844z M20.969,85.222c0-5.076,4.365-9.372,9.531-9.372s9.531,4.229,9.531,9.23v9.768H20.969V85.222z"
	/>
</svg>
