<?xml version="1.0" encoding="UTF-8" standalone="no"?>
<svg width="52px" height="52px" viewBox="0 0 52 52" version="1.1" xmlns="http://www.w3.org/2000/svg" xmlns:xlink="http://www.w3.org/1999/xlink" xmlns:sketch="http://www.bohemiancoding.com/sketch/ns">
    <!-- Generator: Sketch 3.1.1 (8761) - http://www.bohemiancoding.com/sketch -->
    <title>icon-globe-2x</title>
    <desc>Created with Sketch.</desc>
    <defs></defs>
    <g id="Page-1" stroke="none" stroke-width="1" fill="none" fill-rule="evenodd" sketch:type="MSPage">
        <g id="icon-globe" sketch:type="MSLayerGroup" transform="translate(1.000000, 1.000000)" stroke-width="0.25" stroke="#66625B" fill="#66625B">
            <path d="M25.1503018,0.1 L25.1503018,0.1 C25.1503018,0.1 25.0496982,0.1 25.1503018,0.1 C11.267002,0.1 0.1,11.3449799 0.1,25.1 C0.1,38.8550201 11.267002,49.9995984 25.0496982,50.1 L25.0496982,50.1 L25.0496982,50.1 L25.0496982,50.1 C38.8323944,50.1 50.1,38.9554217 50.1,25.1 C50.1,11.2445783 38.932998,0.1 25.1503018,0.1 L25.1503018,0.1 Z M26.156338,15.0598394 C28.7720322,14.9594378 31.3877264,14.6582329 33.9028169,14.0558233 C34.6070423,16.9674699 35.1100604,20.3811245 35.210664,24.0959839 L26.156338,24.0959839 L26.156338,15.0598394 L26.156338,15.0598394 Z M26.156338,13.0518072 L26.156338,2.30883534 C28.8726358,3.01164659 31.5889336,6.62610442 33.2991952,12.1481928 C30.9853119,12.6502008 28.5708249,12.9514056 26.156338,13.0518072 L26.156338,13.0518072 Z M24.1442656,2.30883534 L24.1442656,13.0518072 C21.6291751,12.9514056 19.2146881,12.6502008 16.9008048,12.0477912 C18.71167,6.52570281 21.4279678,2.91124498 24.1442656,2.30883534 L24.1442656,2.30883534 Z M24.1442656,15.0598394 L24.1442656,24.0959839 L15.0899396,24.0959839 C15.1905433,20.3811245 15.5929577,16.9674699 16.3977867,14.0558233 C18.9128773,14.6582329 21.5285714,14.9594378 24.1442656,15.0598394 L24.1442656,15.0598394 Z M13.0778672,24.0959839 L2.21267606,24.0959839 C2.4138833,18.975502 4.32535211,14.2566265 7.44406439,10.5417671 C9.65734406,11.7465863 12.071831,12.7506024 14.4863179,13.5538153 C13.5808853,16.6662651 13.1784708,20.2807229 13.0778672,24.0959839 L13.0778672,24.0959839 Z M13.0778672,26.1040161 C13.1784708,29.9192771 13.6814889,33.5337349 14.4863179,36.6461847 C11.9712274,37.4493976 9.65734406,38.353012 7.44406439,39.6582329 C4.42595573,35.9433735 2.4138833,31.224498 2.21267606,26.1040161 L13.0778672,26.1040161 L13.0778672,26.1040161 Z M15.0899396,26.1040161 L24.1442656,26.1040161 L24.1442656,35.1401606 C21.4279678,35.2405622 18.8122736,35.5417671 16.3977867,36.1441767 C15.5929577,33.2325301 15.1905433,29.8188755 15.0899396,26.1040161 L15.0899396,26.1040161 Z M24.1442656,37.1481928 L24.1442656,47.9915663 C21.4279678,47.288755 18.71167,43.6742972 16.9008048,38.1522088 C19.2146881,37.5497992 21.6291751,37.1481928 24.1442656,37.1481928 L24.1442656,37.1481928 Z M26.156338,47.8911647 L26.156338,37.1481928 C28.6714286,37.2485944 30.9853119,37.5497992 33.2991952,38.0518072 C31.5889336,43.5738956 28.8726358,47.1883534 26.156338,47.8911647 L26.156338,47.8911647 Z M26.156338,35.1401606 L26.156338,26.1040161 L35.210664,26.1040161 C35.1100604,29.8188755 34.7076459,33.2325301 33.9028169,36.1441767 C31.3877264,35.5417671 28.7720322,35.1401606 26.156338,35.1401606 L26.156338,35.1401606 Z M37.1221328,26.1040161 L48.0879276,26.1040161 C47.8867203,31.224498 45.9752515,35.9433735 42.8565392,39.6582329 C40.6432596,38.4534137 38.2287726,37.4493976 35.7136821,36.6461847 C36.6191147,33.4333333 37.1221328,29.9192771 37.1221328,26.1040161 L37.1221328,26.1040161 Z M37.1221328,24.0959839 C37.0215292,20.2807229 36.5185111,16.6662651 35.7136821,13.5538153 C38.2287726,12.7506024 40.6432596,11.7465863 42.8565392,10.5417671 C45.8746479,14.2566265 47.8867203,18.975502 48.0879276,24.0959839 L37.1221328,24.0959839 L37.1221328,24.0959839 Z M41.5486922,9.03574297 C39.5366197,10.1401606 37.4239437,10.9433735 35.210664,11.6461847 C34.0034205,7.9313253 32.3937626,4.8188755 30.4822938,2.81084337 C34.8082495,3.81485944 38.5305835,6.02369478 41.5486922,9.03574297 L41.5486922,9.03574297 Z M19.7177062,2.81084337 C17.8062374,4.8188755 16.0959759,7.83092369 14.989336,11.6461847 C12.7760563,10.9433735 10.7639839,10.1401606 8.75191147,9.03574297 C11.6694165,6.02369478 15.4923541,3.81485944 19.7177062,2.81084337 L19.7177062,2.81084337 Z M8.75191147,41.164257 C10.7639839,40.0598394 12.7760563,39.2566265 14.989336,38.5538153 C16.1965795,42.2686747 17.8062374,45.3811245 19.7177062,47.3891566 C15.4923541,46.3851406 11.6694165,44.1763052 8.75191147,41.164257 L8.75191147,41.164257 Z M30.4822938,47.4895582 C32.3937626,45.4815261 34.1040241,42.3690763 35.210664,38.6542169 C37.4239437,39.3570281 39.5366197,40.160241 41.5486922,41.2646586 C38.6311871,44.1763052 34.8082495,46.3851406 30.4822938,47.4895582 L30.4822938,47.4895582 Z" sketch:type="MSShapeGroup"></path>
        </g>
    </g>
</svg>